# xmcd
#
# Track frame offsets:
#	150
#	5386
#	25705
#	52014
#	69095
#	87183
#	97785
#	124342
#	141455
#	155914
#
# Disc length: 2821 seconds
#
# Revision: 0
# Processed by: cddbd v1.5PL3 Copyright (c) Steve Scherf et al.
# Submitted via: dBpowerAMP V4.0
#
DISCID=7d0b030a
DTITLE=Sean Corkery - Toofless Sean
DYEAR=2004
DGENRE=Blues
TTITLE0=Open
TTITLE1=Nevermind
TTITLE2=Barefoot American Blues
TTITLE3=Bill the Cat
TTITLE4=Draw the line
TTITLE5=Make your own way to Memphis
TTITLE6=Hat like that
TTITLE7=Tuesday afternoon
TTITLE8=Grey skies
TTITLE9=and laughed about it
EXTD=
EXTT0=
EXTT1=
EXTT2=
EXTT3=
EXTT4=
EXTT5=
EXTT6=
EXTT7=
EXTT8=
EXTT9=
PLAYORDER=
